<svg enable-background="new 0 0 550 550" viewBox="0 0 550 550" xmlns="http://www.w3.org/2000/svg"><g id="_x31_6189_-_Magazine"><g><g><path d="m502.633 499.883h-455.266c-15.568 0-28.234-12.67-28.234-28.244v-346.803c0-15.574 12.666-28.245 28.234-28.245h41.733c4.418 0 8 3.582 8 8s-3.582 8-8 8h-41.733c-6.746 0-12.234 5.493-12.234 12.245v346.802c0 6.752 5.488 12.244 12.234 12.244h455.266c6.745 0 12.233-5.492 12.233-12.244v-346.802c0-6.751-5.488-12.245-12.233-12.245h-41.733c-4.418 0-8-3.582-8-8s3.582-8 8-8h41.732c15.568 0 28.233 12.67 28.233 28.245v346.802c.001 15.575-12.664 28.245-28.232 28.245z"/></g><g><path d="m275 499.883c-.692 0-1.389-.09-2.072-.273l-185.9-49.862c-3.496-.938-5.927-4.106-5.927-7.727v-383.904c0-2.463 1.135-4.79 3.077-6.306s4.474-2.051 6.864-1.456l185.9 46.475c3.562.891 6.06 4.09 6.06 7.761v387.291c0 2.487-1.157 4.833-3.131 6.348-1.414 1.083-3.13 1.653-4.871 1.653zm-177.9-63.999 169.9 45.57v-370.616l-169.9-42.475z"/></g><g><path d="m275 499.883c-1.742 0-3.458-.569-4.87-1.652-1.974-1.515-3.131-3.86-3.131-6.348v-387.291c0-3.671 2.499-6.871 6.06-7.761l185.9-46.475c2.39-.599 4.921-.061 6.863 1.456 1.942 1.516 3.077 3.842 3.077 6.306v383.904c0 3.62-2.431 6.789-5.928 7.727l-185.9 49.862c-.681.182-1.379.272-2.071.272zm8-389.045v370.616l169.9-45.57v-367.521zm177.9 331.183h.01z"/></g><g><path d="m213.039 159.069c-.642 0-1.295-.078-1.946-.241l-61.966-15.492c-4.286-1.072-6.892-5.415-5.821-9.702 1.072-4.286 5.416-6.891 9.702-5.821l61.966 15.492c4.286 1.072 6.892 5.415 5.821 9.702-.909 3.635-4.171 6.062-7.756 6.062z"/></g><g><path d="m336.961 159.069c-3.585 0-6.847-2.426-7.755-6.062-1.072-4.287 1.534-8.63 5.82-9.702l61.967-15.492c4.294-1.07 8.631 1.535 9.701 5.821 1.072 4.287-1.534 8.63-5.82 9.702l-61.967 15.492c-.651.163-1.304.241-1.946.241z"/></g><g><path d="m213.039 344.969c-.642 0-1.295-.078-1.946-.241l-61.966-15.492c-4.286-1.071-6.892-5.415-5.821-9.701 1.072-4.286 5.416-6.893 9.702-5.82l61.966 15.492c4.286 1.071 6.892 5.415 5.821 9.701-.909 3.634-4.171 6.061-7.756 6.061z"/></g><g><path d="m336.961 344.969c-3.585 0-6.847-2.427-7.755-6.062-1.072-4.286 1.534-8.63 5.82-9.701l61.967-15.492c4.294-1.072 8.631 1.535 9.701 5.82 1.072 4.286-1.534 8.63-5.82 9.701l-61.967 15.492c-.651.164-1.304.242-1.946.242z"/></g><g><path d="m213.039 406.936c-.642 0-1.295-.078-1.946-.241l-61.966-15.492c-4.286-1.071-6.892-5.415-5.821-9.701 1.072-4.286 5.416-6.895 9.702-5.82l61.966 15.492c4.286 1.071 6.892 5.415 5.821 9.701-.909 3.634-4.171 6.061-7.756 6.061z"/></g><g><path d="m336.961 406.936c-3.585 0-6.847-2.427-7.755-6.062-1.072-4.286 1.534-8.63 5.82-9.701l61.967-15.492c4.294-1.072 8.631 1.535 9.701 5.82 1.072 4.286-1.534 8.63-5.82 9.701l-61.967 15.492c-.651.163-1.304.242-1.946.242z"/></g><g><path d="m213.033 283c-.647 0-1.298-.078-1.94-.239l-61.966-15.491c-3.561-.891-6.06-4.09-6.06-7.761v-61.967c0-2.463 1.135-4.79 3.077-6.306 1.942-1.515 4.474-2.051 6.864-1.456l61.966 15.492c3.561.891 6.06 4.09 6.06 7.761v61.967c0 2.464-1.135 4.79-3.077 6.306-1.421 1.109-3.158 1.694-4.924 1.694zm-53.966-29.738 45.966 11.492v-45.475l-45.966-11.492z"/></g><g><path d="m336.967 283c-1.766 0-3.503-.585-4.923-1.694-1.942-1.516-3.077-3.842-3.077-6.306v-61.967c0-3.671 2.498-6.871 6.06-7.761l61.967-15.492c2.39-.598 4.923-.061 6.863 1.456 1.942 1.516 3.077 3.842 3.077 6.306v61.967c0 3.671-2.498 6.871-6.06 7.761l-61.967 15.491c-.641.161-1.293.239-1.94.239zm8-63.721v45.475l45.967-11.492v-45.475z"/></g></g></g><g id="Layer_1"/></svg>